<?xml version="1.0" encoding="UTF-8" standalone="no"?>
<svg
   xmlns:dc="http://purl.org/dc/elements/1.1/"
   xmlns:cc="http://creativecommons.org/ns#"
   xmlns:rdf="http://www.w3.org/1999/02/22-rdf-syntax-ns#"
   xmlns:svg="http://www.w3.org/2000/svg"
   xmlns="http://www.w3.org/2000/svg"
   version="1.1"
   id="Capa_1"
   x="0px"
   y="0px"
   width="24"
   height="24"
   viewBox="0 0 24 24"
   xml:space="preserve"><metadata
   id="metadata17"><rdf:RDF><cc:Work
       rdf:about=""><dc:format>image/svg+xml</dc:format><dc:type
         rdf:resource="http://purl.org/dc/dcmitype/StillImage" /><dc:title></dc:title></cc:Work></rdf:RDF></metadata><defs
   id="defs15">
	
</defs>

<g
   transform="matrix(0.06451953,0,0,0.06200572,0.38650879,0.83895877)"
   id="g8">
		<path
   id="path2"
   d="M 348.994,102.946 250.04,3.993 c -5.323,-5.323 -13.954,-5.324 -19.277,0 l -153.7,153.701 118.23,118.23 153.701,-153.7 c 5.323,-5.322 5.323,-13.953 0,-19.278 z" />
		<path
   id="path4"
   d="m 52.646,182.11 -41.64,41.64 c -5.324,5.322 -5.324,13.953 0,19.275 l 98.954,98.957 c 5.323,5.322 13.954,5.32 19.277,0 l 41.639,-41.641 z" />
		<polygon
   id="polygon6"
   points="182.806,331.949 150.133,360 341.767,360 341.767,331.949 " />
	</g><path
   style="fill:#ffffff;fill-opacity:1;stroke-width:0.05651101;stroke:none"
   id="polygon6-3"
   d="m 0.8449329,21.383548 3.1458961,0.01798 1.6827644,1.739323 H 0.85520676 Z" /></svg>